<svg xmlns="http://www.w3.org/2000/svg" x="0px" y="0px"
     width="96" height="96"
     viewBox="0 0 172 172"
     style=" fill:#000000;" class="mapMarker">
    <g fill="none" fill-rule="nonzero" stroke="none" stroke-width="1" stroke-linecap="butt" stroke-linejoin="miter"
       stroke-miterlimit="10" stroke-dasharray="" stroke-dashoffset="0" font-family="none" font-weight="none"
       font-size="none" text-anchor="none" style="mix-blend-mode: normal">
        <path d="M0,172v-172h172v172z" fill="none"></path>
        <g fill="darkgray" stroke="black">
            <path d="M86,0c-27.9388,0 -50.16667,22.22787 -50.16667,50.16667c0,43 50.16667,121.83333 50.16667,121.83333c0,0 50.16667,-79.56119 50.16667,-121.83333c0,-27.9388 -22.22786,-50.16667 -50.16667,-50.16667zM86,64.5c-7.89453,0 -14.33333,-6.4388 -14.33333,-14.33333c0,-7.89453 6.43881,-14.33333 14.33333,-14.33333c7.89453,0 14.33333,6.43881 14.33333,14.33333c0,7.89453 -6.4388,14.33333 -14.33333,14.33333z"></path>
        </g>
    </g>
</svg>